<svg xmlns="http://www.w3.org/2000/svg" viewBox="0 0 2.56 2.52"><defs><style>.cls-1{fill:#fff;fill-rule:evenodd;}</style></defs><g id="Calque_2" data-name="Calque 2"><g id="Calque_3" data-name="Calque 3"><path class="cls-1" d="M1.28,0a1.29,1.29,0,0,0-.4,2.51c.06,0,.08,0,.08-.06V2.21C.6,2.29.53,2.06.53,2.06a.36.36,0,0,0-.14-.19c-.12-.08,0-.08,0-.08a.25.25,0,0,1,.19.14A.28.28,0,0,0,1,2a.25.25,0,0,1,.08-.17.57.57,0,0,1-.59-.64A.5.5,0,0,1,.6.88a.45.45,0,0,1,0-.35S.72.5,1,.67A1.19,1.19,0,0,1,1.28.62,1.13,1.13,0,0,1,1.6.67C1.85.5,2,.53,2,.53A.53.53,0,0,1,2,.88a.49.49,0,0,1,.13.34.57.57,0,0,1-.59.64.3.3,0,0,1,.09.24v.35s0,.08.08.06A1.29,1.29,0,0,0,1.28,0Z"/></g></g></svg>