<svg xmlns="http://www.w3.org/2000/svg" viewBox="0 0 2.52 2.52"><defs><style>.cls-1{fill:#fff;}</style></defs><g id="Calque_2" data-name="Calque 2"><g id="Calque_3" data-name="Calque 3"><path class="cls-1" d="M2.22,0H.3A.29.29,0,0,0,0,.3V2.22a.3.3,0,0,0,.3.3H2.22a.31.31,0,0,0,.3-.3V.3A.3.3,0,0,0,2.22,0ZM.78,1V2.1H.42V1ZM.42.63C.42.54.49.48.6.48A.16.16,0,0,1,.78.63.16.16,0,0,1,.6.78.16.16,0,0,1,.42.63ZM2.1,2.1H1.74V1.5a.21.21,0,0,0-.21-.24h0c-.14,0-.2.12-.2.24v.6H1V1h.36v.15A.44.44,0,0,1,1.67,1a.43.43,0,0,1,.43.49Z"/></g></g></svg>